HIERARCHY
ROOT Hips
{
  OFFSET 0.000 78.041 0.000
  CHANNELS 6 Xposition Yposition Zposition Zrotation Xrotation Yrotation
  JOINT LeftUpLeg
  {
    OFFSET 8.011 1.216 3.056
    CHANNELS 6 Xposition Yposition Zposition Zrotation Xrotation Yrotation
    JOINT LeftLeg
    {
      OFFSET 0.000 -40.098 0.000
      CHANNELS 6 Xposition Yposition Zposition Zrotation Xrotation Yrotation
      JOINT LeftFoot
      {
        OFFSET 0.000 -39.158 0.000
        CHANNELS 6 Xposition Yposition Zposition Zrotation Xrotation Yrotation
        End Site
        {
          OFFSET 0.000 0.000 11.433
        }
      }
    }
  }
  JOINT RightUpLeg
  {
    OFFSET -8.011 1.216 3.056
    CHANNELS 6 Xposition Yposition Zposition Zrotation Xrotation Yrotation
    JOINT RightLeg
    {
      OFFSET 0.000 -40.098 0.000
      CHANNELS 6 Xposition Yposition Zposition Zrotation Xrotation Yrotation
      JOINT RightFoot
      {
        OFFSET 0.000 -39.158 0.000
        CHANNELS 6 Xposition Yposition Zposition Zrotation Xrotation Yrotation
        End Site
        {
          OFFSET 0.000 0.000 11.433
        }
      }
    }
  }
  JOINT Spine
  {
    OFFSET 0.000 31.349 0.000
    CHANNELS 6 Xposition Yposition Zposition Zrotation Xrotation Yrotation
    JOINT Spine1
    {
      OFFSET 0.000 23.230 0.000
      CHANNELS 6 Xposition Yposition Zposition Zrotation Xrotation Yrotation
      JOINT LeftShoulder
      {
        OFFSET 1.496 -0.254 0.377
        CHANNELS 6 Xposition Yposition Zposition Zrotation Xrotation Yrotation
        JOINT LeftArm
        {
          OFFSET 15.025 0.000 0.000
          CHANNELS 6 Xposition Yposition Zposition Zrotation Xrotation Yrotation
          JOINT LeftForeArm
          {
            OFFSET 23.933 0.000 0.000
            CHANNELS 6 Xposition Yposition Zposition Zrotation Xrotation Yrotation
            JOINT LeftHand
            {
              OFFSET 23.188 0.000 0.000
              CHANNELS 6 Xposition Yposition Zposition Zrotation Xrotation Yrotation
              JOINT LeftHandThumb1
              {
                OFFSET 4.877 -1.044 3.608
                CHANNELS 6 Xposition Yposition Zposition Zrotation Xrotation Yrotation
                JOINT LeftHandThumb2
                {
                  OFFSET 2.665 0.000 0.000
                  CHANNELS 6 Xposition Yposition Zposition Zrotation Xrotation Yrotation
                  JOINT LeftHandThumb3
                  {
                    OFFSET 2.543 0.000 -0.000
                    CHANNELS 6 Xposition Yposition Zposition Zrotation Xrotation Yrotation
                    End Site
                    {
                      OFFSET 2.667 -0.000 0.000
                    }
                  }
                }
              }
              JOINT LeftHandIndex1
              {
                OFFSET 9.232 -0.301 2.144
                CHANNELS 6 Xposition Yposition Zposition Zrotation Xrotation Yrotation
                JOINT LeftHandIndex2
                {
                  OFFSET 4.225 0.000 -0.000
                  CHANNELS 6 Xposition Yposition Zposition Zrotation Xrotation Yrotation
                  JOINT LeftHandIndex3
                  {
                    OFFSET 2.654 0.000 0.000
                    CHANNELS 6 Xposition Yposition Zposition Zrotation Xrotation Yrotation
                    End Site
                    {
                      OFFSET 1.958 0.000 -0.000
                    }
                  }
                }
              }
              JOINT LeftHandMiddle1
              {
                OFFSET 8.920 0.000 -0.000
                CHANNELS 6 Xposition Yposition Zposition Zrotation Xrotation Yrotation
                JOINT LeftHandMiddle2
                {
                  OFFSET 4.863 0.000 0.000
                  CHANNELS 6 Xposition Yposition Zposition Zrotation Xrotation Yrotation
                  JOINT LeftHandMiddle3
                  {
                    OFFSET 2.765 -0.000 0.000
                    CHANNELS 6 Xposition Yposition Zposition Zrotation Xrotation Yrotation
                    End Site
                    {
                      OFFSET 2.006 0.000 0.000
                    }
                  }
                }
              }
              JOINT LeftHandRing1
              {
                OFFSET 8.689 -0.126 -2.087
                CHANNELS 6 Xposition Yposition Zposition Zrotation Xrotation Yrotation
                JOINT LeftHandRing2
                {
                  OFFSET 4.538 -0.000 0.000
                  CHANNELS 6 Xposition Yposition Zposition Zrotation Xrotation Yrotation
                  JOINT LeftHandRing3
                  {
                    OFFSET 2.305 0.000 0.000
                    CHANNELS 6 Xposition Yposition Zposition Zrotation Xrotation Yrotation
                    End Site
                    {
                      OFFSET 1.923 0.000 0.000
                    }
                  }
                }
              }
              JOINT LeftHandPinky1
              {
                OFFSET 8.391 -0.817 -3.758
                CHANNELS 6 Xposition Yposition Zposition Zrotation Xrotation Yrotation
                JOINT LeftHandPinky2
                {
                  OFFSET 3.044 0.000 0.000
                  CHANNELS 6 Xposition Yposition Zposition Zrotation Xrotation Yrotation
                  JOINT LeftHandPinky3
                  {
                    OFFSET 1.975 0.000 0.000
                    CHANNELS 6 Xposition Yposition Zposition Zrotation Xrotation Yrotation
                    End Site
                    {
                      OFFSET 1.667 0.000 0.000
                    }
                  }
                }
              }
            }
          }
        }
      }
      JOINT RightShoulder
      {
        OFFSET -1.496 -0.254 0.377
        CHANNELS 6 Xposition Yposition Zposition Zrotation Xrotation Yrotation
        JOINT RightArm
        {
          OFFSET -15.025 0.000 0.000
          CHANNELS 6 Xposition Yposition Zposition Zrotation Xrotation Yrotation
          JOINT RightForeArm
          {
            OFFSET -23.933 0.000 0.000
            CHANNELS 6 Xposition Yposition Zposition Zrotation Xrotation Yrotation
            JOINT RightHand
            {
              OFFSET -23.188 0.000 0.000
              CHANNELS 6 Xposition Yposition Zposition Zrotation Xrotation Yrotation
              JOINT RightHandThumb1
              {
                OFFSET -4.877 -1.044 3.608
                CHANNELS 6 Xposition Yposition Zposition Zrotation Xrotation Yrotation
                JOINT RightHandThumb2
                {
                  OFFSET -2.665 0.000 -0.000
                  CHANNELS 6 Xposition Yposition Zposition Zrotation Xrotation Yrotation
                  JOINT RightHandThumb3
                  {
                    OFFSET -2.543 0.000 0.000
                    CHANNELS 6 Xposition Yposition Zposition Zrotation Xrotation Yrotation
                    End Site
                    {
                      OFFSET -2.667 0.000 0.000
                    }
                  }
                }
              }
              JOINT RightHandIndex1
              {
                OFFSET -9.232 -0.301 2.144
                CHANNELS 6 Xposition Yposition Zposition Zrotation Xrotation Yrotation
                JOINT RightHandIndex2
                {
                  OFFSET -4.225 0.000 -0.000
                  CHANNELS 6 Xposition Yposition Zposition Zrotation Xrotation Yrotation
                  JOINT RightHandIndex3
                  {
                    OFFSET -2.654 0.000 0.000
                    CHANNELS 6 Xposition Yposition Zposition Zrotation Xrotation Yrotation
                    End Site
                    {
                      OFFSET -1.958 0.000 0.000
                    }
                  }
                }
              }
              JOINT RightHandMiddle1
              {
                OFFSET -8.920 0.000 0.000
                CHANNELS 6 Xposition Yposition Zposition Zrotation Xrotation Yrotation
                JOINT RightHandMiddle2
                {
                  OFFSET -4.863 0.000 0.000
                  CHANNELS 6 Xposition Yposition Zposition Zrotation Xrotation Yrotation
                  JOINT RightHandMiddle3
                  {
                    OFFSET -2.765 0.000 0.000
                    CHANNELS 6 Xposition Yposition Zposition Zrotation Xrotation Yrotation
                    End Site
                    {
                      OFFSET -2.006 0.000 0.000
                    }
                  }
                }
              }
              JOINT RightHandRing1
              {
                OFFSET -8.689 -0.126 -2.087
                CHANNELS 6 Xposition Yposition Zposition Zrotation Xrotation Yrotation
                JOINT RightHandRing2
                {
                  OFFSET -4.538 0.000 -0.000
                  CHANNELS 6 Xposition Yposition Zposition Zrotation Xrotation Yrotation
                  JOINT RightHandRing3
                  {
                    OFFSET -2.305 0.000 0.000
                    CHANNELS 6 Xposition Yposition Zposition Zrotation Xrotation Yrotation
                    End Site
                    {
                      OFFSET -1.923 -0.000 0.000
                    }
                  }
                }
              }
              JOINT RightHandPinky1
              {
                OFFSET -8.391 -0.817 -3.758
                CHANNELS 6 Xposition Yposition Zposition Zrotation Xrotation Yrotation
                JOINT RightHandPinky2
                {
                  OFFSET -3.044 0.000 0.000
                  CHANNELS 6 Xposition Yposition Zposition Zrotation Xrotation Yrotation
                  JOINT RightHandPinky3
                  {
                    OFFSET -1.975 -0.000 0.000
                    CHANNELS 6 Xposition Yposition Zposition Zrotation Xrotation Yrotation
                    End Site
                    {
                      OFFSET -1.667 0.000 -0.000
                    }
                  }
                }
              }
            }
          }
        }
      }
      JOINT Neck
      {
        OFFSET 0.000 0.758 0.000
        CHANNELS 6 Xposition Yposition Zposition Zrotation Xrotation Yrotation
        JOINT Head
        {
          OFFSET 0.000 6.874 0.000
          CHANNELS 6 Xposition Yposition Zposition Zrotation Xrotation Yrotation
          End Site
          {
            OFFSET 0.000 15.410 0.000
          }
        }
      }
    }
  }
}
MOTION
Frames:	4
Frame Time:	0.034483
-3.67588 39.46927 -193.81894 23.62409 24.20463 21.57575 6.66594 2.89699 2.23871 -56.81176 -53.32090 -20.28823 -0.00074 -38.96399 0.21458 109.96209 5.17929 -64.76753 -0.58422 -33.12049 0.06383 -38.52951 5.64989 -9.42668 -7.76835 1.94426 3.40835 -59.12336 16.76663 -32.02607 -0.63997 -29.12395 -0.64821 104.29356 -37.93319 27.00746 1.75260 -25.89784 -0.06077 2.11165 -2.78621 0.39621 -0.05488 30.64898 0.12297 0.09455 1.95268 6.41584 -0.29879 22.95509 0.03445 0.58916 2.41405 6.77703 1.56091 0.36358 -0.14347 11.48723 1.56891 5.69798 15.15465 -0.01407 -0.68577 -161.43762 -4.85265 -23.89547 29.31071 0.14825 2.53387 -4.46087 -9.62113 3.54934 25.83165 1.04801 -1.60106 5.30979 58.08136 -35.40139 4.87701 -1.04400 3.60799 -24.66850 4.20669 -9.07703 2.66500 0.00000 0.00001 -0.00000 0.00000 9.99777 2.54301 0.00000 -0.00002 0.00000 0.00000 15.00164 9.23200 -0.30100 2.14399 -19.99781 -0.00000 0.00000 4.22500 0.00001 -0.00001 -24.99837 -0.00000 0.00000 2.65400 0.00000 0.00000 -29.90388 2.49465 -4.33068 8.92001 0.00000 -0.00001 -20.00219 -0.00000 0.00000 4.86300 0.00000 0.00001 -25.00237 -0.00000 0.00000 2.76500 -0.00001 0.00001 -29.90793 2.49834 -4.33122 8.68901 -0.12600 -2.08702 -20.00219 -0.00000 0.00000 4.53801 -0.00001 0.00000 -25.00237 -0.00000 0.00000 2.30501 0.00001 0.00000 -29.90793 2.49834 -4.33122 8.39100 -0.81701 -3.75801 -19.99781 -0.00000 0.00000 3.04400 0.00001 0.00002 -24.99837 -0.00000 0.00000 1.97501 0.00001 0.00000 -29.90388 2.49465 -4.33068 -1.32338 0.16127 -0.06528 -2.84290 0.26966 -5.72984 -13.64471 -0.13483 0.11096 -9.28671 15.62180 59.70522 -21.84998 3.07927 -3.53433 147.91351 16.39821 -26.47289 -19.78834 0.30998 2.42433 20.63902 26.89495 -11.95360 -4.87698 -1.04400 3.60800 37.43743 21.26459 8.20422 -2.66498 0.00000 -0.00001 -0.00000 0.00000 -5.00000 -2.54300 0.00001 0.00001 -0.00000 -0.00000 -60.00000 -9.23200 -0.30100 2.14400 79.99797 -0.00001 0.00001 -4.22500 0.00000 -0.00001 89.99773 -0.00000 0.00001 -2.65399 0.00000 0.00000 69.99822 -0.00001 0.00000 -8.91999 0.00000 0.00000 80.00000 -0.00001 0.00001 -4.86300 0.00001 0.00000 90.00000 -0.00000 0.00001 -2.76501 0.00000 0.00000 70.00000 -0.00001 0.00000 -8.68899 -0.12600 -2.08699 80.00000 -0.00001 0.00001 -4.53800 0.00001 -0.00001 90.00000 -0.00000 0.00001 -2.30500 0.00000 0.00000 70.00000 -0.00001 0.00000 -8.39099 -0.81700 -3.75799 79.99797 -0.00001 0.00001 -3.04400 0.00001 0.00000 89.99773 -0.00000 0.00001 -1.97500 -0.00000 0.00000 69.99822 -0.00001 0.00000 -0.01797 0.77204 -0.00202 0.00187 0.00295 0.00156 -0.15183 6.96220 0.02094 52.19365 15.60054 -85.20901 
-3.15704 36.96054 -192.77791 29.54941 26.32930 19.26538 7.26417 2.58221 2.58316 -69.74831 -54.36473 -23.27450 0.10633 -38.91429 0.26070 114.16029 3.49729 -60.86760 -0.57761 -34.57372 -0.01892 -31.24066 -0.32587 -9.21722 -7.56307 2.39210 3.40471 -60.47478 15.11463 -26.88003 -0.68860 -27.17750 -0.68569 110.98148 -42.63069 35.57766 1.27269 -25.92425 -0.02546 0.42433 -5.21197 -7.68418 -0.10725 30.08224 0.13258 0.68536 2.06874 2.90080 -0.39073 22.62426 -0.09052 0.30328 2.85863 2.77020 1.58334 0.14163 0.07937 4.66651 3.27404 -0.95529 14.52414 -0.15987 -0.12866 -165.10429 -11.23430 -41.50764 27.95897 0.11918 1.52342 6.95299 -21.56513 6.13671 24.16980 1.01423 -2.14615 166.34143 62.23589 160.81042 4.87701 -1.04400 3.60799 -24.66848 4.20670 -9.07704 2.66500 0.00000 0.00001 -0.00000 0.00000 9.99778 2.54301 0.00000 -0.00002 0.00000 0.00000 15.00163 9.23200 -0.30100 2.14399 -19.99782 -0.00000 0.00000 4.22500 0.00001 -0.00001 -24.99838 -0.00000 0.00000 2.65400 0.00000 0.00000 -29.90389 2.49466 -4.33069 8.92001 0.00000 -0.00001 -20.00218 -0.00000 0.00000 4.86300 0.00000 0.00001 -25.00236 -0.00000 0.00000 2.76500 -0.00001 0.00001 -29.90792 2.49833 -4.33123 8.68901 -0.12600 -2.08702 -20.00218 -0.00000 0.00000 4.53801 -0.00001 0.00000 -25.00236 -0.00000 0.00000 2.30501 0.00001 0.00000 -29.90792 2.49833 -4.33123 8.39100 -0.81701 -3.75801 -19.99782 -0.00000 0.00000 3.04400 0.00001 0.00002 -24.99838 -0.00000 0.00000 1.97501 0.00001 0.00000 -29.90389 2.49466 -4.33069 -1.41989 0.27521 0.09233 -8.24266 -1.29796 1.67465 -14.53897 -0.21508 0.12448 -4.54771 7.13337 64.73022 -21.78783 3.03661 -2.26847 157.98657 12.14102 -22.84649 -22.68560 0.03876 2.05466 13.34929 19.17487 -7.94403 -4.87698 -1.04400 3.60800 37.43744 21.26460 8.20424 -2.66498 0.00000 -0.00001 -0.00000 0.00000 -5.00000 -2.54300 0.00001 0.00001 -0.00000 -0.00000 -60.00000 -9.23200 -0.30100 2.14400 79.99799 -0.00001 0.00001 -4.22500 0.00000 -0.00001 89.99774 -0.00000 0.00001 -2.65399 0.00000 0.00000 69.99823 -0.00001 0.00000 -8.91999 0.00000 0.00000 80.00000 -0.00001 0.00001 -4.86300 0.00001 0.00000 90.00000 -0.00000 0.00001 -2.76501 0.00000 0.00000 70.00000 -0.00001 0.00000 -8.68899 -0.12600 -2.08699 80.00000 -0.00001 0.00001 -4.53800 0.00001 -0.00001 90.00000 -0.00000 0.00001 -2.30500 0.00000 0.00000 70.00000 -0.00001 0.00000 -8.39099 -0.81700 -3.75799 79.99799 -0.00001 0.00001 -3.04400 0.00001 0.00000 89.99774 -0.00000 0.00001 -1.97500 -0.00000 0.00000 69.99823 -0.00001 0.00000 -0.01763 0.76285 -0.01008 0.00777 0.00291 -0.00597 -0.24901 6.85443 -0.05292 56.14354 22.60250 -88.71600 
-2.13575 37.62078 -191.97383 40.00984 26.95892 12.57847 7.59371 1.84191 2.68821 -80.20805 -54.17402 -21.08908 0.05829 -38.95617 0.26154 115.04868 3.48457 -57.58655 -0.60855 -36.98558 0.19991 -24.10657 -6.01844 -17.54147 -7.00737 2.93779 3.30089 -68.08979 16.13313 -24.22322 -0.38259 -28.95393 -0.80250 120.73757 -41.66026 43.31653 2.22364 -31.57649 1.05256 1.70403 -6.83819 -9.54169 0.04672 28.88687 -0.05307 0.69776 2.44383 -1.49340 -0.33303 21.79458 -0.46265 0.03104 3.81062 -2.26641 1.72358 0.01677 0.41631 -0.28142 5.23943 -7.85706 15.01757 0.28258 1.53643 -179.89328 -16.43318 -69.69919 25.72907 0.51300 0.49222 24.97824 -30.06287 16.59997 22.74880 1.22281 -2.64429 139.67900 -28.97578 136.61131 4.87701 -1.04400 3.60799 -24.66847 4.20671 -9.07705 2.66500 0.00000 0.00001 -0.00000 0.00000 9.99779 2.54301 0.00000 -0.00002 0.00000 0.00000 15.00162 9.23200 -0.30100 2.14399 -19.99783 -0.00000 0.00000 4.22500 0.00001 -0.00001 -24.99839 -0.00000 0.00000 2.65400 0.00000 0.00000 -29.90389 2.49466 -4.33070 8.92001 0.00000 -0.00001 -20.00217 -0.00000 0.00000 4.86300 0.00000 0.00001 -25.00235 -0.00000 0.00000 2.76500 -0.00001 0.00001 -29.90790 2.49831 -4.33124 8.68901 -0.12600 -2.08702 -20.00217 -0.00000 0.00000 4.53801 -0.00001 0.00000 -25.00235 -0.00000 0.00000 2.30501 0.00001 0.00000 -29.90790 2.49831 -4.33124 8.39100 -0.81701 -3.75801 -19.99783 -0.00000 0.00000 3.04400 0.00001 0.00002 -24.99839 -0.00000 0.00000 1.97501 0.00001 0.00000 -29.90389 2.49466 -4.33070 -1.38819 0.47312 0.35333 -14.81023 -6.04535 11.48814 -15.50850 -0.32520 0.00859 -3.76180 3.68184 74.80286 -23.53833 3.17947 -0.74328 164.31396 9.70264 -14.80577 -24.62956 -0.00665 1.62020 16.51283 17.76942 16.09788 -4.87698 -1.04400 3.60800 37.43744 21.26461 8.20425 -2.66498 0.00000 -0.00001 -0.00000 0.00000 -5.00000 -2.54300 0.00001 0.00001 -0.00000 -0.00000 -60.00000 -9.23200 -0.30100 2.14400 79.99799 -0.00001 0.00001 -4.22500 0.00000 -0.00001 89.99775 -0.00000 0.00001 -2.65399 0.00000 0.00000 69.99824 -0.00001 0.00000 -8.91999 0.00000 0.00000 80.00000 -0.00001 0.00001 -4.86300 0.00001 0.00000 90.00000 -0.00000 0.00001 -2.76501 0.00000 0.00000 70.00000 -0.00001 0.00000 -8.68899 -0.12600 -2.08699 80.00000 -0.00001 0.00001 -4.53800 0.00001 -0.00001 90.00000 -0.00000 0.00001 -2.30500 0.00000 0.00000 70.00000 -0.00001 0.00000 -8.39099 -0.81700 -3.75799 79.99799 -0.00001 0.00001 -3.04400 0.00001 0.00000 89.99775 -0.00000 0.00001 -1.97500 -0.00000 0.00000 69.99824 -0.00001 0.00000 -0.01517 0.73206 -0.02859 0.01750 0.00287 -0.01748 -0.20240 6.58746 -0.22087 51.77343 32.21896 -88.61996 
-0.36339 40.48666 -190.75455 49.80437 34.10530 3.76858 7.84013 2.34556 2.71537 -84.51382 -53.17675 -18.92722 0.14000 -39.05406 -0.28599 110.40970 1.80245 -42.62787 -0.38324 -36.67831 -0.30891 -28.27442 -2.06587 6.32518 -6.15467 2.90703 2.58311 -82.35220 2.52356 -30.74436 -0.77676 -29.76730 0.72055 121.37546 -38.52414 31.86382 3.16330 -35.77431 1.28723 -16.67809 1.53445 -45.80521 0.12585 26.97462 -0.52742 0.61709 1.76223 1.27271 -0.18353 20.43095 -0.26644 0.21124 2.97764 0.72202 1.48811 0.06210 0.44652 3.18008 3.61526 -6.91691 13.37164 0.03928 1.73494 172.52492 -16.76538 -68.42656 25.45118 0.40910 0.42806 47.26143 -49.86186 38.35651 22.96058 1.50939 -2.37878 158.31769 -45.86028 123.02365 4.87701 -1.04400 3.60799 -24.66846 4.20672 -9.07706 2.66500 0.00000 0.00001 -0.00000 0.00000 9.99780 2.54301 0.00000 -0.00002 0.00000 0.00000 15.00162 9.23200 -0.30100 2.14399 -19.99784 -0.00000 0.00000 4.22500 0.00001 -0.00001 -24.99840 -0.00000 0.00000 2.65400 0.00000 0.00000 -29.90391 2.49467 -4.33071 8.92001 0.00000 -0.00001 -20.00216 -0.00000 0.00000 4.86300 0.00000 0.00001 -25.00234 -0.00000 0.00000 2.76500 -0.00001 0.00001 -29.90789 2.49830 -4.33125 8.68901 -0.12600 -2.08702 -20.00216 -0.00000 0.00000 4.53801 -0.00001 0.00000 -25.00234 -0.00000 0.00000 2.30501 0.00001 0.00000 -29.90789 2.49830 -4.33125 8.39100 -0.81701 -3.75801 -19.99784 -0.00000 0.00000 3.04400 0.00001 0.00002 -24.99840 -0.00000 0.00000 1.97501 0.00001 0.00000 -29.90391 2.49467 -4.33071 -1.41706 0.70259 0.25005 -23.15531 -5.53360 9.38873 -16.47811 -0.49070 0.24110 -5.98928 -19.90626 79.81519 -21.00190 1.98303 -1.24827 -169.47266 4.52334 -11.04210 -25.46268 0.04996 1.19312 -4.38198 -3.87182 10.99190 -4.87698 -1.04400 3.60800 37.43744 21.26461 8.20426 -2.66498 0.00000 -0.00001 -0.00000 0.00000 -5.00000 -2.54300 0.00001 0.00001 -0.00000 -0.00000 -60.00000 -9.23200 -0.30100 2.14400 79.99800 -0.00001 0.00001 -4.22500 0.00000 -0.00001 89.99776 -0.00000 0.00001 -2.65399 0.00000 0.00000 69.99825 -0.00001 0.00000 -8.91999 0.00000 0.00000 80.00000 -0.00001 0.00001 -4.86300 0.00001 0.00000 90.00000 -0.00000 0.00001 -2.76501 0.00000 0.00000 70.00000 -0.00001 0.00000 -8.68899 -0.12600 -2.08699 80.00000 -0.00001 0.00001 -4.53800 0.00001 -0.00001 90.00000 -0.00000 0.00001 -2.30500 0.00000 0.00000 70.00000 -0.00001 0.00000 -8.39099 -0.81700 -3.75799 79.99800 -0.00001 0.00001 -3.04400 0.00001 0.00000 89.99776 -0.00000 0.00001 -1.97500 -0.00000 0.00000 69.99825 -0.00001 0.00000 -0.00518 0.69019 -0.00753 0.02827 0.00283 -0.00603 -0.08473 6.21535 -0.05547 47.58154 28.40638 -91.62183 
